name ./resultDataOpenSim/trcMotMarkerGrf/sub10/grf-15-07.mot
datacolumns 19
datarows 22
range 1.04000000 1.12400000
endheader

                time	     ground_force_vx	     ground_force_vy	     ground_force_vz	     ground_force_px	     ground_force_py	     ground_force_pz	   l_ground_force_vx	   l_ground_force_vy	   l_ground_force_vz	   l_ground_force_px	   l_ground_force_py	   l_ground_force_pz	     ground_torque_x	     ground_torque_y	     ground_torque_z	   l_ground_torque_x	   l_ground_torque_y	   l_ground_torque_z	
          1.04000000	          0.00000000	          0.00000000	          0.00000000	          0.00000000	          0.00000000	          0.00000000	         65.56928074	        788.55415592	         22.21286053	         -0.06770547	         -0.10000000	         -0.15145796	          0.00000000	          0.00000000	          0.00000000	          0.00000000	         -3.41122155	          0.00000000	
          1.04400000	          0.00000000	          0.00000000	          0.00000000	          0.00000000	          0.00000000	          0.00000000	         69.90509505	        788.41338411	         21.64100499	         -0.06738775	         -0.10000000	         -0.15119354	          0.00000000	          0.00000000	          0.00000000	          0.00000000	         -3.41464476	          0.00000000	
          1.04800000	          0.00000000	          0.00000000	          0.00000000	          0.00000000	          0.00000000	          0.00000000	         74.62983066	        787.76853141	         20.85646962	         -0.06706280	         -0.10000000	         -0.15093316	          0.00000000	          0.00000000	          0.00000000	          0.00000000	         -3.42239301	          0.00000000	
          1.05200000	          0.00000000	          0.00000000	          0.00000000	          0.00000000	          0.00000000	          0.00000000	         79.69230231	        786.46749138	         19.86269606	         -0.06672320	         -0.10000000	         -0.15067709	          0.00000000	          0.00000000	          0.00000000	          0.00000000	         -3.43500024	          0.00000000	
          1.05600000	          0.00000000	          0.00000000	          0.00000000	          0.00000000	          0.00000000	          0.00000000	         84.99853430	        784.40014262	         18.66140180	         -0.06636702	         -0.10000000	         -0.15041943	          0.00000000	          0.00000000	          0.00000000	          0.00000000	         -3.45268934	          0.00000000	
          1.06000000	          0.00000000	          0.00000000	          0.00000000	          0.00000000	          0.00000000	          0.00000000	         90.42495072	        781.52522441	         17.24714519	         -0.06600154	         -0.10000000	         -0.15014974	          0.00000000	          0.00000000	          0.00000000	          0.00000000	         -3.47540231	          0.00000000	
          1.06400000	          0.00000000	          0.00000000	          0.00000000	          0.00000000	          0.00000000	          0.00000000	         95.83646100	        777.91067580	         15.61785584	         -0.06562580	         -0.10000000	         -0.14984997	          0.00000000	          0.00000000	          0.00000000	          0.00000000	         -3.50275928	          0.00000000	
          1.06800000	          0.00000000	          0.00000000	          0.00000000	          0.00000000	          0.00000000	          0.00000000	        101.10623530	        773.72232381	         13.79201338	         -0.06522071	         -0.10000000	         -0.14949522	          0.00000000	          0.00000000	          0.00000000	          0.00000000	         -3.53391132	          0.00000000	
          1.07200000	          0.00000000	          0.00000000	          0.00000000	          0.00000000	          0.00000000	          0.00000000	        106.14078949	        769.13224380	         11.79879660	         -0.06476927	         -0.10000000	         -0.14907396	          0.00000000	          0.00000000	          0.00000000	          0.00000000	         -3.56732272	          0.00000000	
          1.07600000	          0.00000000	          0.00000000	          0.00000000	          0.00000000	          0.00000000	          0.00000000	        110.90578434	        764.21900306	          9.64558383	         -0.06427293	         -0.09999976	         -0.14860281	          0.00000000	          0.00000000	          0.00000000	          0.00000000	         -3.60066477	          0.00000000	
          1.08000000	          0.00000000	          0.00000000	          0.00000000	          0.00000000	          0.00000000	          0.00000000	        115.43891679	        758.94042029	          7.30988338	         -0.06374771	         -0.09999900	         -0.14811329	          0.00000000	          0.00000000	          0.00000000	          0.00000000	         -3.63099702	          0.00000000	
          1.08400000	          0.00000000	          0.00000000	          0.00000000	          0.00000000	          0.00000000	          0.00000000	        119.84294973	        753.17095201	          4.77730560	         -0.06320936	         -0.09999900	         -0.14762349	          0.00000000	          0.00000000	          0.00000000	          0.00000000	         -3.65519798	          0.00000000	
          1.08800000	          0.00000000	          0.00000000	          0.00000000	          0.00000000	          0.00000000	          0.00000000	        124.24929951	        746.75947008	          2.07543439	         -0.06265682	         -0.09999900	         -0.14712758	          0.00000000	          0.00000000	          0.00000000	          0.00000000	         -3.67039482	          0.00000000	
          1.09200000	          0.00000000	          0.00000000	          0.00000000	          0.00000000	          0.00000000	          0.00000000	        128.74700213	        739.57959728	         -0.74380782	         -0.06207571	         -0.09999900	         -0.14660967	          0.00000000	          0.00000000	          0.00000000	          0.00000000	         -3.67415420	          0.00000000	
          1.09600000	          0.00000000	          0.00000000	          0.00000000	          0.00000000	          0.00000000	          0.00000000	        133.32405210	        731.54126973	         -3.63725456	         -0.06145139	         -0.09999900	         -0.14605469	          0.00000000	          0.00000000	          0.00000000	          0.00000000	         -3.66444031	          0.00000000	
          1.10000000	          0.00000000	          0.00000000	          0.00000000	          0.00000000	          0.00000000	          0.00000000	        137.87561594	        722.57019076	         -6.57568834	         -0.06076952	         -0.09999900	         -0.14545935	          0.00000000	          0.00000000	          0.00000000	          0.00000000	         -3.63956263	          0.00000000	
          1.10400000	          0.00000000	          0.00000000	          0.00000000	          0.00000000	          0.00000000	          0.00000000	        142.25871227	        712.60043274	         -9.54367889	         -0.06000271	         -0.09999900	         -0.14482739	          0.00000000	          0.00000000	          0.00000000	          0.00000000	         -3.59826581	          0.00000000	
          1.10800000	          0.00000000	          0.00000000	          0.00000000	          0.00000000	          0.00000000	          0.00000000	        146.34974630	        701.57644777	        -12.54832030	         -0.05914248	         -0.09999808	         -0.14417967	          0.00000000	          0.00000000	          0.00000000	          0.00000000	         -3.53986396	          0.00000000	
          1.11200000	          0.00000000	          0.00000000	          0.00000000	          0.00000000	          0.00000000	          0.00000000	        150.08049094	        689.43225352	        -15.60616628	         -0.05818998	         -0.09999800	         -0.14353466	          0.00000000	          0.00000000	          0.00000000	          0.00000000	         -3.46426091	          0.00000000	
          1.11600000	          0.00000000	          0.00000000	          0.00000000	          0.00000000	          0.00000000	          0.00000000	        153.42708984	        676.06886114	        -18.70603386	         -0.05716585	         -0.09999800	         -0.14289745	          0.00000000	          0.00000000	          0.00000000	          0.00000000	         -3.37188361	          0.00000000	
          1.12000000	          0.00000000	          0.00000000	          0.00000000	          0.00000000	          0.00000000	          0.00000000	        156.36315230	        661.36384264	        -21.78981941	         -0.05613322	         -0.09999800	         -0.14227745	          0.00000000	          0.00000000	          0.00000000	          0.00000000	         -3.26367939	          0.00000000	
          1.12400000	          0.00000000	          0.00000000	          0.00000000	          0.00000000	          0.00000000	          0.00000000	        158.82175027	        645.18546790	        -24.77747616	         -0.05514001	         -0.09999724	         -0.14168792	          0.00000000	          0.00000000	          0.00000000	          0.00000000	         -3.14124745	          0.00000000	
